<svg xmlns="http://www.w3.org/2000/svg" viewBox="0 0 1200 60" width="1200" height="60" fill="none" role="img" aria-label="animated wave divider">
  <g stroke="#57606A" stroke-width="2" stroke-linecap="round" fill="none">
    <g opacity="0.35">
      <path d="M -240.0 30.00 L -234.0 32.78 L -228.0 35.29 L -222.0 37.28 L -216.0 38.56 L -210.0 39.00 L -204.0 38.56 L -198.0 37.28 L -192.0 35.29 L -186.0 32.78 L -180.0 30.00 L -174.0 27.22 L -168.0 24.71 L -162.0 22.72 L -156.0 21.44 L -150.0 21.00 L -144.0 21.44 L -138.0 22.72 L -132.0 24.71 L -126.0 27.22 L -120.0 30.00 L -114.0 32.78 L -108.0 35.29 L -102.0 37.28 L -96.0 38.56 L -90.0 39.00 L -84.0 38.56 L -78.0 37.28 L -72.0 35.29 L -66.0 32.78 L -60.0 30.00 L -54.0 27.22 L -48.0 24.71 L -42.0 22.72 L -36.0 21.44 L -30.0 21.00 L -24.0 21.44 L -18.0 22.72 L -12.0 24.71 L -6.0 27.22 L 0.0 30.00 L 6.0 32.78 L 12.0 35.29 L 18.0 37.28 L 24.0 38.56 L 30.0 39.00 L 36.0 38.56 L 42.0 37.28 L 48.0 35.29 L 54.0 32.78 L 60.0 30.00 L 66.0 27.22 L 72.0 24.71 L 78.0 22.72 L 84.0 21.44 L 90.0 21.00 L 96.0 21.44 L 102.0 22.72 L 108.0 24.71 L 114.0 27.22 L 120.0 30.00 L 126.0 32.78 L 132.0 35.29 L 138.0 37.28 L 144.0 38.56 L 150.0 39.00 L 156.0 38.56 L 162.0 37.28 L 168.0 35.29 L 174.0 32.78 L 180.0 30.00 L 186.0 27.22 L 192.0 24.71 L 198.0 22.72 L 204.0 21.44 L 210.0 21.00 L 216.0 21.44 L 222.0 22.72 L 228.0 24.71 L 234.0 27.22 L 240.0 30.00 L 246.0 32.78 L 252.0 35.29 L 258.0 37.28 L 264.0 38.56 L 270.0 39.00 L 276.0 38.56 L 282.0 37.28 L 288.0 35.29 L 294.0 32.78 L 300.0 30.00 L 306.0 27.22 L 312.0 24.71 L 318.0 22.72 L 324.0 21.44 L 330.0 21.00 L 336.0 21.44 L 342.0 22.72 L 348.0 24.71 L 354.0 27.22 L 360.0 30.00 L 366.0 32.78 L 372.0 35.29 L 378.0 37.28 L 384.0 38.56 L 390.0 39.00 L 396.0 38.56 L 402.0 37.28 L 408.0 35.29 L 414.0 32.78 L 420.0 30.00 L 426.0 27.22 L 432.0 24.71 L 438.0 22.72 L 444.0 21.44 L 450.0 21.00 L 456.0 21.44 L 462.0 22.72 L 468.0 24.71 L 474.0 27.22 L 480.0 30.00 L 486.0 32.78 L 492.0 35.29 L 498.0 37.28 L 504.0 38.56 L 510.0 39.00 L 516.0 38.56 L 522.0 37.28 L 528.0 35.29 L 534.0 32.78 L 540.0 30.00 L 546.0 27.22 L 552.0 24.71 L 558.0 22.72 L 564.0 21.44 L 570.0 21.00 L 576.0 21.44 L 582.0 22.72 L 588.0 24.71 L 594.0 27.22 L 600.0 30.00 L 606.0 32.78 L 612.0 35.29 L 618.0 37.28 L 624.0 38.56 L 630.0 39.00 L 636.0 38.56 L 642.0 37.28 L 648.0 35.29 L 654.0 32.78 L 660.0 30.00 L 666.0 27.22 L 672.0 24.71 L 678.0 22.72 L 684.0 21.44 L 690.0 21.00 L 696.0 21.44 L 702.0 22.72 L 708.0 24.71 L 714.0 27.22 L 720.0 30.00 L 726.0 32.78 L 732.0 35.29 L 738.0 37.28 L 744.0 38.56 L 750.0 39.00 L 756.0 38.56 L 762.0 37.28 L 768.0 35.29 L 774.0 32.78 L 780.0 30.00 L 786.0 27.22 L 792.0 24.71 L 798.0 22.72 L 804.0 21.44 L 810.0 21.00 L 816.0 21.44 L 822.0 22.72 L 828.0 24.71 L 834.0 27.22 L 840.0 30.00 L 846.0 32.78 L 852.0 35.29 L 858.0 37.28 L 864.0 38.56 L 870.0 39.00 L 876.0 38.56 L 882.0 37.28 L 888.0 35.29 L 894.0 32.78 L 900.0 30.00 L 906.0 27.22 L 912.0 24.71 L 918.0 22.72 L 924.0 21.44 L 930.0 21.00 L 936.0 21.44 L 942.0 22.72 L 948.0 24.71 L 954.0 27.22 L 960.0 30.00 L 966.0 32.78 L 972.0 35.29 L 978.0 37.28 L 984.0 38.56 L 990.0 39.00 L 996.0 38.56 L 1002.0 37.28 L 1008.0 35.29 L 1014.0 32.78 L 1020.0 30.00 L 1026.0 27.22 L 1032.0 24.71 L 1038.0 22.72 L 1044.0 21.44 L 1050.0 21.00 L 1056.0 21.44 L 1062.0 22.72 L 1068.0 24.71 L 1074.0 27.22 L 1080.0 30.00 L 1086.0 32.78 L 1092.0 35.29 L 1098.0 37.28 L 1104.0 38.56 L 1110.0 39.00 L 1116.0 38.56 L 1122.0 37.28 L 1128.0 35.29 L 1134.0 32.78 L 1140.0 30.00 L 1146.0 27.22 L 1152.0 24.71 L 1158.0 22.72 L 1164.0 21.44 L 1170.0 21.00 L 1176.0 21.44 L 1182.0 22.72 L 1188.0 24.71 L 1194.0 27.22 L 1200.0 30.00 L 1206.0 32.78 L 1212.0 35.29 L 1218.0 37.28 L 1224.0 38.56 L 1230.0 39.00 L 1236.0 38.56 L 1242.0 37.28 L 1248.0 35.29 L 1254.0 32.78 L 1260.0 30.00 L 1266.0 27.22 L 1272.0 24.71 L 1278.0 22.72 L 1284.0 21.44 L 1290.0 21.00 L 1296.0 21.44 L 1302.0 22.72 L 1308.0 24.71 L 1314.0 27.22 L 1320.0 30.00 L 1326.0 32.78 L 1332.0 35.29 L 1338.0 37.28 L 1344.0 38.56 L 1350.0 39.00 L 1356.0 38.56 L 1362.0 37.28 L 1368.0 35.29 L 1374.0 32.78 L 1380.0 30.00 L 1386.0 27.22 L 1392.0 24.71 L 1398.0 22.72 L 1404.0 21.44 L 1410.0 21.00 L 1416.0 21.44 L 1422.0 22.72 L 1428.0 24.71 L 1434.0 27.22 L 1440.0 30.00" transform="translate(-60 0)"/>
      <animateTransform attributeName="transform" type="translate" from="0 0" to="-120 0" dur="4.5s" repeatCount="indefinite"/>
    </g>
    <g opacity="0.8">
      <path d="M -240.0 30.00 L -234.0 33.71 L -228.0 37.05 L -222.0 39.71 L -216.0 41.41 L -210.0 42.00 L -204.0 41.41 L -198.0 39.71 L -192.0 37.05 L -186.0 33.71 L -180.0 30.00 L -174.0 26.29 L -168.0 22.95 L -162.0 20.29 L -156.0 18.59 L -150.0 18.00 L -144.0 18.59 L -138.0 20.29 L -132.0 22.95 L -126.0 26.29 L -120.0 30.00 L -114.0 33.71 L -108.0 37.05 L -102.0 39.71 L -96.0 41.41 L -90.0 42.00 L -84.0 41.41 L -78.0 39.71 L -72.0 37.05 L -66.0 33.71 L -60.0 30.00 L -54.0 26.29 L -48.0 22.95 L -42.0 20.29 L -36.0 18.59 L -30.0 18.00 L -24.0 18.59 L -18.0 20.29 L -12.0 22.95 L -6.0 26.29 L 0.0 30.00 L 6.0 33.71 L 12.0 37.05 L 18.0 39.71 L 24.0 41.41 L 30.0 42.00 L 36.0 41.41 L 42.0 39.71 L 48.0 37.05 L 54.0 33.71 L 60.0 30.00 L 66.0 26.29 L 72.0 22.95 L 78.0 20.29 L 84.0 18.59 L 90.0 18.00 L 96.0 18.59 L 102.0 20.29 L 108.0 22.95 L 114.0 26.29 L 120.0 30.00 L 126.0 33.71 L 132.0 37.05 L 138.0 39.71 L 144.0 41.41 L 150.0 42.00 L 156.0 41.41 L 162.0 39.71 L 168.0 37.05 L 174.0 33.71 L 180.0 30.00 L 186.0 26.29 L 192.0 22.95 L 198.0 20.29 L 204.0 18.59 L 210.0 18.00 L 216.0 18.59 L 222.0 20.29 L 228.0 22.95 L 234.0 26.29 L 240.0 30.00 L 246.0 33.71 L 252.0 37.05 L 258.0 39.71 L 264.0 41.41 L 270.0 42.00 L 276.0 41.41 L 282.0 39.71 L 288.0 37.05 L 294.0 33.71 L 300.0 30.00 L 306.0 26.29 L 312.0 22.95 L 318.0 20.29 L 324.0 18.59 L 330.0 18.00 L 336.0 18.59 L 342.0 20.29 L 348.0 22.95 L 354.0 26.29 L 360.0 30.00 L 366.0 33.71 L 372.0 37.05 L 378.0 39.71 L 384.0 41.41 L 390.0 42.00 L 396.0 41.41 L 402.0 39.71 L 408.0 37.05 L 414.0 33.71 L 420.0 30.00 L 426.0 26.29 L 432.0 22.95 L 438.0 20.29 L 444.0 18.59 L 450.0 18.00 L 456.0 18.59 L 462.0 20.29 L 468.0 22.95 L 474.0 26.29 L 480.0 30.00 L 486.0 33.71 L 492.0 37.05 L 498.0 39.71 L 504.0 41.41 L 510.0 42.00 L 516.0 41.41 L 522.0 39.71 L 528.0 37.05 L 534.0 33.71 L 540.0 30.00 L 546.0 26.29 L 552.0 22.95 L 558.0 20.29 L 564.0 18.59 L 570.0 18.00 L 576.0 18.59 L 582.0 20.29 L 588.0 22.95 L 594.0 26.29 L 600.0 30.00 L 606.0 33.71 L 612.0 37.05 L 618.0 39.71 L 624.0 41.41 L 630.0 42.00 L 636.0 41.41 L 642.0 39.71 L 648.0 37.05 L 654.0 33.71 L 660.0 30.00 L 666.0 26.29 L 672.0 22.95 L 678.0 20.29 L 684.0 18.59 L 690.0 18.00 L 696.0 18.59 L 702.0 20.29 L 708.0 22.95 L 714.0 26.29 L 720.0 30.00 L 726.0 33.71 L 732.0 37.05 L 738.0 39.71 L 744.0 41.41 L 750.0 42.00 L 756.0 41.41 L 762.0 39.71 L 768.0 37.05 L 774.0 33.71 L 780.0 30.00 L 786.0 26.29 L 792.0 22.95 L 798.0 20.29 L 804.0 18.59 L 810.0 18.00 L 816.0 18.59 L 822.0 20.29 L 828.0 22.95 L 834.0 26.29 L 840.0 30.00 L 846.0 33.71 L 852.0 37.05 L 858.0 39.71 L 864.0 41.41 L 870.0 42.00 L 876.0 41.41 L 882.0 39.71 L 888.0 37.05 L 894.0 33.71 L 900.0 30.00 L 906.0 26.29 L 912.0 22.95 L 918.0 20.29 L 924.0 18.59 L 930.0 18.00 L 936.0 18.59 L 942.0 20.29 L 948.0 22.95 L 954.0 26.29 L 960.0 30.00 L 966.0 33.71 L 972.0 37.05 L 978.0 39.71 L 984.0 41.41 L 990.0 42.00 L 996.0 41.41 L 1002.0 39.71 L 1008.0 37.05 L 1014.0 33.71 L 1020.0 30.00 L 1026.0 26.29 L 1032.0 22.95 L 1038.0 20.29 L 1044.0 18.59 L 1050.0 18.00 L 1056.0 18.59 L 1062.0 20.29 L 1068.0 22.95 L 1074.0 26.29 L 1080.0 30.00 L 1086.0 33.71 L 1092.0 37.05 L 1098.0 39.71 L 1104.0 41.41 L 1110.0 42.00 L 1116.0 41.41 L 1122.0 39.71 L 1128.0 37.05 L 1134.0 33.71 L 1140.0 30.00 L 1146.0 26.29 L 1152.0 22.95 L 1158.0 20.29 L 1164.0 18.59 L 1170.0 18.00 L 1176.0 18.59 L 1182.0 20.29 L 1188.0 22.95 L 1194.0 26.29 L 1200.0 30.00 L 1206.0 33.71 L 1212.0 37.05 L 1218.0 39.71 L 1224.0 41.41 L 1230.0 42.00 L 1236.0 41.41 L 1242.0 39.71 L 1248.0 37.05 L 1254.0 33.71 L 1260.0 30.00 L 1266.0 26.29 L 1272.0 22.95 L 1278.0 20.29 L 1284.0 18.59 L 1290.0 18.00 L 1296.0 18.59 L 1302.0 20.29 L 1308.0 22.95 L 1314.0 26.29 L 1320.0 30.00 L 1326.0 33.71 L 1332.0 37.05 L 1338.0 39.71 L 1344.0 41.41 L 1350.0 42.00 L 1356.0 41.41 L 1362.0 39.71 L 1368.0 37.05 L 1374.0 33.71 L 1380.0 30.00 L 1386.0 26.29 L 1392.0 22.95 L 1398.0 20.29 L 1404.0 18.59 L 1410.0 18.00 L 1416.0 18.59 L 1422.0 20.29 L 1428.0 22.95 L 1434.0 26.29 L 1440.0 30.00"/>
      <animateTransform attributeName="transform" type="translate" from="0 0" to="-120 0" dur="3s" repeatCount="indefinite"/>
    </g>
  </g>
</svg>